<svg width="22" height="22" viewBox="0 0 22 22" fill="none" xmlns="http://www.w3.org/2000/svg">
<path d="M20.5333 7.33333V5.86667V4.4H19.0667V2.93333H17.6V1.46667H16.1333H14.6667V0H13.2H11.7333H10.2667H8.8H7.33333V1.46667H5.86667H4.4V2.93333H2.93333V4.4H1.46667V5.86667V7.33333H0V8.8V10.2667V11.7333V13.2V14.6667H1.46667V16.1333V17.6H2.93333V19.0667H4.4V20.5333H5.86667H7.33333V22H8.8H10.2667H11.7333H13.2H14.6667V20.5333H16.1333H17.6V19.0667H19.0667V17.6H20.5333V16.1333V14.6667H22V13.2V11.7333V10.2667V8.8V7.33333H20.5333ZM16.1333 13.2H14.6667H13.2V14.6667V16.1333V17.6H11.7336H10.267H8.8V16.1333V14.6667V13.2H7.33333H5.86667H4.4V11.7333V10.2667V8.8H5.86667H7.33333H8.8V7.33333V5.86667V4.4H10.2667H11.7333H13.2V5.86667V7.33333V8.8H14.6667H16.1333H17.6V10.2667V11.7333V13.2H16.1333Z" fill="white"/>
</svg>
